HIERARCHY
ROOT Hips
{
	OFFSET 0.000000 0.000000 0.000000 
	CHANNELS 6 Xposition Yposition Zposition Zrotation Yrotation Xrotation
	JOINT LeftUpLeg
	{
		OFFSET 1.363060 -1.794630 0.839290 
		CHANNELS 3 Zrotation Yrotation Xrotation
		JOINT LeftLeg
		{
			OFFSET 2.448110 -6.726130 0.000000 
			CHANNELS 3 Zrotation Yrotation Xrotation
			JOINT LeftFoot
			{
				OFFSET 2.562200 -7.039590 0.000000 
				CHANNELS 3 Zrotation Yrotation Xrotation
				JOINT LeftToeBase
				{
					OFFSET 0.157640 -0.433110 2.322550 
					CHANNELS 3 Zrotation Yrotation Xrotation
					End Site
					{
						OFFSET 0.000000 0.000000 0.000000 
					}
				}
			}
		}
	}
	JOINT RightUpLeg
	{
		OFFSET -1.305520 -1.794630 0.839290 
		CHANNELS 3 Zrotation Yrotation Xrotation
		JOINT RightLeg
		{
			OFFSET -2.542530 -6.985550 0.000000 
			CHANNELS 3 Zrotation Yrotation Xrotation
			JOINT RightFoot
			{
				OFFSET -2.568260 -7.056230 0.000000 
				CHANNELS 3 Zrotation Yrotation Xrotation
				JOINT RightToeBase
				{
					OFFSET -0.164730 -0.452590 2.363150 
					CHANNELS 3 Zrotation Yrotation Xrotation
					End Site
					{
						OFFSET 0.000000 0.000000 0.000000 
					}
				}
			}
		}
	}
	JOINT Spine
	{
		OFFSET 0.028270 2.035590 -0.193380 
		CHANNELS 3 Zrotation Yrotation Xrotation
		JOINT Spine1
		{
			OFFSET 0.056720 2.048850 -0.042750 
			CHANNELS 3 Zrotation Yrotation Xrotation
			JOINT Neck1
			{
				OFFSET -0.054170 1.746240 0.172020 
				CHANNELS 3 Zrotation Yrotation Xrotation
				JOINT Head
				{
					OFFSET 0.104070 1.761360 -0.123970 
					CHANNELS 3 Zrotation Yrotation Xrotation
					End Site
					{
						OFFSET 0.000000 0.000000 0.000000 
					}
				}
			}
			JOINT LeftArm
			{
				OFFSET 3.362410 1.200890 -0.311210 
				CHANNELS 3 Zrotation Yrotation Xrotation
				JOINT LeftForeArm
				{
					OFFSET 4.983000 -0.000000 -0.000000 
					CHANNELS 3 Zrotation Yrotation Xrotation
					JOINT LeftHand
					{
						OFFSET 3.483560 -0.000000 -0.000000 
						CHANNELS 3 Zrotation Yrotation Xrotation
						JOINT LeftHandIndex1
						{
							OFFSET 0.715260 -0.000000 -0.000000 
							CHANNELS 3 Zrotation Yrotation Xrotation
							End Site
							{
								OFFSET 0.000000 0.000000 0.000000 
							}
						}
					}
				}
			}
			JOINT RightArm
			{
				OFFSET -3.136600 1.374050 -0.404650 
				CHANNELS 3 Zrotation Yrotation Xrotation
				JOINT RightForeArm
				{
					OFFSET -5.241900 -0.000000 -0.000000 
					CHANNELS 3 Zrotation Yrotation Xrotation
					JOINT RightHand
					{
						OFFSET -3.444170 -0.000000 -0.000000 
						CHANNELS 3 Zrotation Yrotation Xrotation
						JOINT RightHandIndex1
						{
							OFFSET -0.622530 -0.000000 -0.000000 
							CHANNELS 3 Zrotation Yrotation Xrotation
							End Site
							{
								OFFSET 0.000000 0.000000 0.000000 
							}
						}
					}
				}
			}
		}
	}
}
MOTION
Frames: 16
Frame Time: 0.041667
-0.010138 16.892604 37.955329 177.732687 62.251936 -167.015460 -0.491779 -1.545320 -19.465372 -0.241506 10.320600 26.780072 9.448611 -17.076460 6.949302 3.145300 -10.926700 -32.032900 -8.549312 22.050177 -13.900406 -0.857829 -10.690896 26.476790 1.388640 -9.257044 11.215153 -1.486900 7.703700 -21.817600 0.820897 2.837954 -4.800918 3.133040 1.598768 -17.545675 12.551696 -29.803667 -1.515876 24.084400 -11.017300 0.711700 -75.884759 -1.869757 63.233069 84.521926 -53.645660 -60.668107 1.147249 -2.013688 -31.486650 -7.125000 0.000000 0.000000 74.399766 -10.141027 73.914319 -54.422046 51.916352 -31.788366 -1.166951 2.106730 1.986174 7.125000 0.000000 0.000000 
-0.108368 16.968528 37.852932 178.605460 63.725196 -166.232029 -0.771790 -0.449503 -19.453099 -0.315996 10.107477 26.432044 9.293368 -16.529707 7.459846 3.035500 -10.752200 -31.448800 -7.747557 21.203051 -14.778117 -1.014264 -11.141585 27.305995 1.972502 -10.495205 11.089008 -1.367200 7.400400 -20.907000 0.906647 2.702209 -4.825152 3.371778 1.545618 -17.592979 12.352779 -29.413211 -1.181754 24.008700 -10.990400 0.857400 -74.991887 -1.812746 62.992778 86.115498 -53.839681 -62.209089 1.164409 -2.064196 -32.037014 -7.125000 0.000000 0.000000 73.694649 -9.921447 75.222984 -55.348020 52.232982 -32.587937 -1.203470 2.117378 3.873626 7.125000 0.000000 0.000000 
-0.201528 17.044341 37.753801 179.583084 65.181841 -165.467908 -1.024429 0.517990 -19.265552 -0.393693 9.884515 26.033520 9.045629 -15.665918 7.880292 3.014500 -10.718500 -31.336100 -6.705283 20.145203 -15.570881 -1.188994 -11.620959 28.311271 2.472602 -11.483170 10.632134 -1.316700 7.267900 -20.511500 0.974327 2.602678 -4.831707 3.512472 1.486983 -17.634441 12.157554 -29.067704 -0.851120 23.900400 -10.985600 1.002300 -73.975222 -1.624863 62.715441 87.736652 -54.031977 -63.770517 1.185753 -2.114318 -32.707022 -7.125000 0.000000 0.000000 73.109738 -9.679267 76.300042 -56.089815 52.473132 -33.218303 -1.227841 2.128863 5.570240 7.125000 0.000000 0.000000 
-0.289280 17.117787 37.657938 -179.469487 66.640590 -164.822982 -1.299009 1.386817 -18.940917 -0.480038 9.657953 25.592201 8.711984 -14.581868 8.248873 3.048100 -10.772600 -31.516600 -5.500510 18.945178 -16.284022 -1.397945 -12.133025 29.515875 2.886233 -12.234919 9.949114 -1.310500 7.251300 -20.462000 1.026021 2.527592 -4.823937 3.608519 1.433654 -17.671295 11.959594 -28.753360 -0.513222 23.768400 -10.999700 1.147100 -72.894773 -1.307580 62.390332 89.359459 -54.218772 -65.323298 1.211045 -2.162201 -33.469370 -7.125000 0.000000 0.000000 72.616586 -9.441892 77.173729 -56.657003 52.646224 -33.690443 -1.243586 2.141214 7.010632 7.125000 0.000000 0.000000 
-0.371063 17.187742 37.565904 -178.676169 68.125139 -164.393834 -1.627289 2.143899 -18.495271 -0.576432 9.436279 25.118435 8.265047 -13.244975 8.557410 3.137000 -10.913600 -31.989100 -4.208782 17.675545 -16.921439 -1.653118 -12.678643 30.923280 3.206122 -12.762149 9.156727 -1.318200 7.271900 -20.523300 1.059533 2.468535 -4.803372 3.672328 1.387143 -17.689895 11.751682 -28.453108 -0.157636 23.608800 -11.027300 1.291500 -71.765577 -0.870913 62.004066 90.957256 -54.397532 -66.844610 1.239448 -2.208409 -34.305724 -7.125000 0.000000 0.000000 72.218014 -9.211603 77.860042 -57.059666 52.761110 -34.013400 -1.253128 2.153318 8.108349 7.125000 0.000000 0.000000 
-0.446763 17.252402 37.477363 -178.179441 69.649814 -164.289567 -2.041464 2.805279 -17.967986 -0.681540 9.230049 24.634562 7.714010 -11.730123 8.814955 3.254500 -11.096000 -32.604500 -2.903808 16.390418 -17.491962 -1.962010 -13.253545 32.525755 3.408175 -13.035300 8.364001 -1.326900 7.294700 -20.591600 1.076116 2.407757 -4.774544 3.730979 1.347482 -17.691592 11.532439 -28.150579 0.223952 23.449300 -11.064400 1.442000 -70.596711 -0.308397 61.555095 92.508068 -54.567708 -68.315205 1.270296 -2.253315 -35.196119 -7.125000 0.000000 0.000000 71.891110 -9.009024 78.406590 -57.307859 52.825032 -34.192168 -1.257400 2.164084 8.871498 7.125000 0.000000 0.000000 
-0.516492 17.310303 37.391750 -178.101156 71.209969 -164.612275 -2.557491 3.402471 -17.404353 -0.795625 9.045745 24.163167 7.130524 -10.254347 9.082271 3.328100 -11.208100 -32.985100 -1.634285 15.108492 -17.998958 -2.328505 -13.846776 34.301729 3.495787 -13.063468 7.594804 -1.347200 7.348200 -20.751100 1.079689 2.326960 -4.740157 3.805237 1.311434 -17.665794 11.294370 -27.821339 0.641800 23.284500 -11.102000 1.604200 -69.400012 0.376732 61.045744 94.020966 -54.730622 -69.741889 1.303564 -2.295911 -36.116741 -7.125000 0.000000 0.000000 71.603633 -8.838556 78.849088 -57.419570 52.846534 -34.244692 -1.257737 2.172575 9.316332 7.125000 0.000000 0.000000 
-0.581377 17.360093 37.307827 -178.548584 72.785051 -165.465378 -3.180982 3.966132 -16.844598 -0.909410 8.897676 23.740264 6.557999 -8.903055 9.327473 3.358300 -11.253600 -33.140100 -0.427341 13.815858 -18.439039 -2.748545 -14.441050 36.220222 3.444496 -12.792173 6.891325 -1.385600 7.447800 -21.049000 1.073983 2.210128 -4.701366 3.899330 1.272081 -17.609493 11.041516 -27.467970 1.088226 23.128700 -11.138100 1.777800 -68.213481 1.181996 60.472115 95.470339 -54.886436 -71.102135 1.338257 -2.334928 -37.025717 -7.125000 0.000000 0.000000 71.338384 -8.700582 79.208569 -57.405434 52.830734 -34.181138 -1.254418 2.178301 9.487981 7.125000 0.000000 0.000000 
-0.642432 17.402674 37.223567 -179.576065 74.345579 -166.851585 -3.889338 4.430505 -16.327962 -1.018313 8.796768 23.389268 5.979165 -7.598521 9.522466 3.364300 -11.262700 -33.171000 0.694661 12.502829 -18.852694 -3.212949 -15.019181 38.227894 3.258144 -12.230762 6.302766 -1.440400 7.587600 -21.468500 1.052796 2.070875 -4.661917 3.947022 1.221307 -17.503955 10.778369 -27.103343 1.551745 22.974200 -11.173600 1.953500 -67.006653 2.081155 59.888689 96.859890 -55.036556 -72.399844 1.374582 -2.372025 -37.908351 -7.125000 0.000000 0.000000 71.124461 -8.598592 79.445454 -57.282788 52.786429 -34.013529 -1.246966 2.178569 9.464835 7.125000 0.000000 0.000000 
-0.700784 17.438159 37.137053 178.844953 75.867925 -168.706793 -4.658725 4.840755 -15.930226 -1.112281 8.751522 23.138891 5.417238 -6.370294 9.652937 3.368800 -11.269300 -33.193700 1.740341 11.147778 -19.279063 -3.707360 -15.565422 40.273419 2.933694 -11.365024 5.853212 -1.509100 7.758400 -21.982500 1.030674 1.906384 -4.626314 3.998211 1.168369 -17.351691 10.506290 -26.745591 2.014894 22.815000 -11.208900 2.118600 -65.943400 3.056508 59.259871 98.104502 -55.179316 -73.558572 1.408112 -2.402940 -38.681881 -7.125000 0.000000 0.000000 70.893214 -8.538966 79.568717 -57.068235 52.719540 -33.775414 -1.237313 2.175553 9.295337 7.125000 0.000000 0.000000 
-0.757108 17.467447 37.048173 176.734841 77.368102 -170.981012 -5.468158 5.220512 -15.697948 -1.182331 8.769147 23.013670 4.852092 -5.150538 9.694303 3.402000 -11.319000 -33.363300 2.721670 9.765918 -19.748785 -4.217412 -16.070393 42.305946 2.494641 -10.240410 5.557998 -1.598100 7.973200 -22.632800 0.998952 1.747453 -4.595294 3.985397 1.112628 -17.135226 10.230603 -26.393934 2.475727 22.661200 -11.242900 2.275400 -64.943331 4.076059 58.641229 99.209313 -55.318734 -74.586727 1.439800 -2.430202 -39.364633 -7.125000 0.000000 0.000000 70.683263 -8.512370 79.556751 -56.793060 52.641685 -33.487737 -1.224590 2.168601 9.007944 7.125000 0.000000 0.000000 
-0.811517 17.490878 36.956478 174.074982 78.871387 -173.694838 -6.303616 5.595271 -15.648854 -1.221605 8.856917 23.039081 4.279514 -3.924496 9.633660 3.473100 -11.424200 -33.724100 3.656750 8.382817 -20.257639 -4.729137 -16.527272 44.287211 1.957014 -8.882363 5.416208 -1.703600 8.219400 -23.382400 0.962421 1.626125 -4.570893 3.901784 1.070401 -16.868079 10.167746 -26.110984 2.830961 22.039800 -11.254200 2.366500 -64.041259 5.121158 58.043267 100.155952 -55.453943 -75.469183 1.468210 -2.454017 -39.931666 -7.125000 0.000000 0.000000 70.493427 -8.532530 79.396711 -56.482652 52.556078 -33.181464 -1.208633 2.158557 8.616984 7.125000 0.000000 0.000000 
-0.864349 17.508338 36.863656 170.825593 80.417574 -176.910245 -7.145188 6.023088 -15.788363 -1.223296 9.016022 23.231560 3.715179 -2.724480 9.481247 3.574700 -11.571900 -34.233800 4.581253 7.038926 -20.780924 -5.230109 -16.935658 46.191133 1.343761 -7.329877 5.419993 -1.819000 8.478400 -24.176800 0.915531 1.559591 -4.547466 3.767618 1.049395 -16.562995 9.895468 -25.814062 3.252664 21.901200 -11.293100 2.483700 -63.238705 6.173492 57.486633 100.958200 -55.591189 -76.219919 1.493050 -2.474917 -40.380750 -7.125000 0.000000 0.000000 70.312751 -8.590953 79.085922 -56.184607 52.485900 -32.897243 -1.190311 2.148580 8.084308 7.125000 0.000000 0.000000 
-0.915829 17.519716 36.771397 166.741905 82.057047 179.092693 -7.983266 6.566918 -16.108136 -1.182992 9.244187 23.601844 3.198397 -1.639380 9.261134 3.679800 -11.721600 -34.754300 5.523085 5.783075 -21.276800 -5.710824 -17.298121 47.997558 0.694915 -5.662579 5.559941 -1.948900 8.758800 -25.043700 0.867196 1.559731 -4.525805 3.623654 1.066190 -16.243984 9.638286 -25.535397 3.652031 21.793400 -11.332500 2.591700 -62.535770 7.245863 56.953372 101.626786 -55.729873 -76.848872 1.514788 -2.491844 -40.714628 -7.125000 0.000000 0.000000 70.118754 -8.685225 78.681117 -55.925251 52.428839 -32.654019 -1.167226 2.138865 7.415562 7.125000 0.000000 0.000000 
-0.966183 17.524672 36.680828 161.192945 83.798284 173.637684 -8.812190 7.226313 -16.571867 -1.101346 9.538324 24.148329 2.749795 -0.712844 8.990299 3.769600 -11.847400 -35.194200 6.494401 4.622471 -21.694067 -6.165628 -17.614456 49.696023 0.036994 -3.928187 5.813208 -2.086800 9.044600 -25.934900 0.817672 1.642927 -4.502611 3.479177 1.131984 -15.926567 9.391938 -25.284307 4.025011 21.692400 -11.374300 2.684300 -61.924812 8.322775 56.462793 102.173188 -55.868716 -77.365739 1.533559 -2.505166 -40.938608 -7.125000 0.000000 0.000000 69.913751 -8.817005 78.170737 -55.726330 52.388952 -32.470256 -1.138029 2.128308 6.606283 7.125000 0.000000 0.000000 
-1.015974 17.522870 36.592850 152.704716 85.624048 165.212394 -9.631870 8.001241 -17.140588 -0.978280 9.890828 24.864630 2.378968 0.036478 8.676395 3.853800 -11.963300 -35.602300 7.498044 3.538200 -21.992567 -6.590317 -17.888923 51.278048 -0.597612 -2.193307 6.159039 -2.229500 9.328600 -26.828800 0.769992 1.792212 -4.476246 3.351921 1.241841 -15.627473 9.157537 -25.041744 4.377170 21.607300 -11.412700 2.766700 -61.440729 9.408140 55.970367 102.592827 -56.008500 -77.771362 1.547998 -2.514573 -41.051021 -7.125000 0.000000 0.000000 69.691014 -8.975407 77.613076 -55.600472 52.367208 -32.350917 -1.100997 2.116384 5.660497 7.125000 0.000000 0.000000 
